<?xml version="1.0" encoding="utf-8"?>
<!-- Generator: Adobe Illustrator 19.2.1, SVG Export Plug-In . SVG Version: 6.00 Build 0)  -->
<svg version="1.1" id="layer" xmlns="http://www.w3.org/2000/svg" xmlns:xlink="http://www.w3.org/1999/xlink" x="0px" y="0px"
	 viewBox="0 0 652 652" style="enable-background:new 0 0 652 652;" xml:space="preserve">
<style type="text/css">
	.st0{fill:#004167;}
	.st1{clip-path:url(#SVGID_2_);fill:#FFFFFF;}
	.st2{clip-path:url(#SVGID_4_);fill:url(#SVGID_5_);}
</style>
<rect x="20.6" y="190.1" class="st0" width="600" height="263.5"/>
<g>
	<defs>
		<rect id="SVGID_1_" x="20.6" y="190.1" width="600" height="263.5"/>
	</defs>
	<clipPath id="SVGID_2_">
		<use xlink:href="#SVGID_1_"  style="overflow:visible;"/>
	</clipPath>
	<path class="st1" d="M305.1,318.3h37.6c0,0-7.7,10.1-16.2,21.2h43.9c7.8-10.2,14.9-19.5,16-20.9c5-6.5,6.1-12.2,6.1-17.4v-7.3
		c0-3.7-2.3-5.7-5.8-5.7h-81.6c-3.4,0-5.6,1.9-5.6,5.6v18.9C299.5,316.4,301.8,318.3,305.1,318.3"/>
	<path class="st1" d="M62.6,391.5c-1,1.7-1,3.6-0.4,4.7c0.7,1.4,2.3,2.2,4.1,2.2H93c3.4,0,6.4-1.8,8.1-4.5l29.5-46.8h-40
		C76.8,369,62.9,391,62.6,391.5"/>
	<path class="st1" d="M172.5,347.2h-37.4c0.9,5.2,7.9,43.8,8.3,46.1c0.6,3.5,2.8,5.3,6,5.3h25.8c2.4,0,3.6-0.7,4.6-2.1
		c0.8-0.9,1.1-2.3,0.7-4.4L172.5,347.2z"/>
	<path class="st1" d="M287.8,293.8c0-3.8-2.3-5.6-5.6-5.6h-22.8c-3.4,0-5.6,1.9-5.6,5.6l0,42.8l-21.6-38.5c-4.3-7.1-11.5-9.7-20-9.9
		h-16.8c-3.4,0-5.6,1.9-5.6,5.6v45.7h28.3l4.3,7.7h-32.6v45.7c0,3.8,2.3,5.6,5.6,5.6h22.8c3.4,0,5.6-1.9,5.6-5.6v-43l21.7,38.7
		c4.3,7.1,11.5,9.7,20,9.9h16.7c3.4,0,5.6-1.9,5.6-5.6v-45.7h-28.1l-4.3-7.7h32.4V293.8z"/>
	<path class="st1" d="M162.9,293.5c-0.7-3.6-3-5.3-6.2-5.3h-11.2c-11.6,0-21.9,6.1-27.6,15.3c0,0-10.7,16.9-22.6,36h75.8
		L162.9,293.5z"/>
	<path class="st1" d="M387.9,368.3h-39.5c0,0,7.7-10.1,16.2-21.2h-43.9c-8,10.4-15.2,19.8-15.6,20.4c-5.8,8.1-6.4,16.3-6.4,22v3.2
		c0,3.7,2.3,5.7,5.7,5.7h83.5c3.4,0,5.6-1.8,5.6-5.6V374C393.5,370.2,391.3,368.3,387.9,368.3"/>
</g>
<g>
	<defs>
		<path id="SVGID_3_" d="M465.4,350.6c-5.8-8-14.3-14.1-21.1-16.8c-4.1-1.6-10.2-3.3-17.3-3.3c-2,0-4.1,0.1-6.2,0.5
			c-7,1-10.4,3.4-12.3,5c-3.1,2.6-5.4,7.2-2,12c3.5,4.8,35.6,42.5,44,52.2c1.3,1.4,3.8,3.3,7.2,2.6c4.2-0.9,9-5.8,10.8-9.4
			c1.3-2.6,2.3-4.7,3.2-8.4c0.8-3.5,1.1-6.9,1.1-10.2C472.8,365.4,469.9,356.9,465.4,350.6 M492.1,240.7
			c-26.1,0-47.3,21.2-47.3,47.3c0,11.1,3.8,21.4,10.3,29.5c8.4,10.1,18.9,13.7,23.1,13.6c6.5-0.1,5.4-5.4,4.8-7.5
			c-0.5-1.9-1.7-4.6-3.3-7c-2.4-3.6-4.1-7.6-4.1-12.7c0-9.1,8.7-15.8,16.4-15.8c7.7,0,16.5,6.6,16.5,15.8c0,5.1-1.7,9.1-4.1,12.7
			c-1.6,2.4-2.8,5-3.3,7c-0.5,2.2-1.7,7.4,4.8,7.5c4.2,0.1,14.6-3.6,23-13.6c6.5-8.1,10.3-18.4,10.3-29.5
			C539.4,261.9,518.2,240.7,492.1,240.7 M575.7,336c-1.9-1.6-5.3-4-12.3-5c-2.1-0.3-4.2-0.5-6.2-0.5c-7.1,0-13.2,1.7-17.3,3.3
			c-6.8,2.7-15.2,8.8-21.1,16.8c-6.1,8.4-9.3,21.1-6.3,34.3c0.9,3.7,1.8,5.8,3.1,8.4c1.9,3.6,6.7,8.5,10.8,9.4
			c3.3,0.7,5.9-1.2,7.2-2.6c8.5-9.7,40.6-47.4,44-52.2c1.3-1.7,1.7-3.4,1.7-4.9C579.4,340.2,577.8,337.7,575.7,336"/>
	</defs>
	<clipPath id="SVGID_4_">
		<use xlink:href="#SVGID_3_"  style="overflow:visible;"/>
	</clipPath>
	
		<radialGradient id="SVGID_5_" cx="-176.535" cy="730.5783" r="37.005" gradientTransform="matrix(9.362500e-003 5.3643 -3.9759 6.939300e-003 3398.3037 1180.407)" gradientUnits="userSpaceOnUse">
		<stop  offset="0" style="stop-color:#00ADE6"/>
		<stop  offset="0.17" style="stop-color:#009FE1"/>
		<stop  offset="0.65" style="stop-color:#0098DF"/>
		<stop  offset="1" style="stop-color:#004069"/>
	</radialGradient>
	<polygon class="st2" points="402.8,240.7 403,403.8 579.7,403.5 579.4,240.4 	"/>
</g>
</svg>
